<svg xmlns="http://www.w3.org/2000/svg" xmlns:xlink="http://www.w3.org/1999/xlink" width="500" zoomAndPan="magnify" viewBox="0 0 375 374.999991" height="500" preserveAspectRatio="xMidYMid meet" version="1.0"><defs><g/><clipPath id="6d8867168d"><path d="M 14.382812 126.410156 L 360.769531 126.410156 L 360.769531 229.757812 L 14.382812 229.757812 Z M 14.382812 126.410156 " clip-rule="nonzero"/></clipPath><clipPath id="69bd116006"><path d="M 332.492188 126.410156 C 348.027344 126.410156 360.617188 149.542969 360.617188 178.085938 C 360.617188 206.625 348.027344 229.757812 332.492188 229.757812 L 42.507812 229.757812 C 26.972656 229.757812 14.382812 206.625 14.382812 178.085938 C 14.382812 149.542969 26.972656 126.410156 42.507812 126.410156 Z M 332.492188 126.410156 " clip-rule="nonzero"/></clipPath><clipPath id="ec40df67ab"><path d="M 14.386719 126.410156 L 360.664062 126.410156 L 360.664062 229.910156 L 14.386719 229.910156 Z M 14.386719 126.410156 " clip-rule="nonzero"/></clipPath><clipPath id="85bd0a0f27"><path d="M 332.484375 126.410156 C 348.019531 126.410156 360.609375 149.542969 360.609375 178.082031 C 360.609375 206.621094 348.019531 229.757812 332.484375 229.757812 L 42.507812 229.757812 C 26.976562 229.757812 14.386719 206.621094 14.386719 178.082031 C 14.386719 149.542969 26.976562 126.410156 42.507812 126.410156 Z M 332.484375 126.410156 " clip-rule="nonzero"/></clipPath></defs><rect x="-37.5" width="450" fill="#ffffff" y="-37.499999" height="449.999989" fill-opacity="1"/><rect x="-37.5" width="450" fill="#ffdb15" y="-37.499999" height="449.999989" fill-opacity="1"/><g clip-path="url(#6d8867168d)"><g clip-path="url(#69bd116006)"><path fill="#ffdb15" d="M 14.382812 126.410156 L 360.769531 126.410156 L 360.769531 229.757812 L 14.382812 229.757812 Z M 14.382812 126.410156 " fill-opacity="1" fill-rule="nonzero"/></g></g><g clip-path="url(#ec40df67ab)"><g clip-path="url(#85bd0a0f27)"><path stroke-linecap="butt" transform="matrix(0.75, 0, 0, 0.75, 14.385258, 126.409079)" fill="none" stroke-linejoin="miter" d="M 424.132211 0.00143647 C 444.845755 0.00143647 461.632216 30.84519 461.632216 68.897279 C 461.632216 106.949367 444.845755 137.798329 424.132211 137.798329 L 37.496744 137.798329 C 16.788408 137.798329 0.00194773 106.949367 0.00194773 68.897279 C 0.00194773 30.84519 16.788408 0.00143647 37.496744 0.00143647 Z M 424.132211 0.00143647 " stroke="#005959" stroke-width="50" stroke-opacity="1" stroke-miterlimit="4"/></g></g><g fill="#ffffff" fill-opacity="0.302"><g transform="translate(85.412109, 191.331887)"><g><path d="M 11.328125 10.4375 C 10.523438 10.4375 9.566406 10.164062 8.453125 9.625 C 7.347656 9.09375 6.269531 8.253906 5.21875 7.109375 C 4.164062 5.960938 3.457031 4.804688 3.09375 3.640625 C 2.5 1.722656 2.164062 -0.570312 2.09375 -3.25 L 2.09375 -3.921875 C 2.09375 -6.441406 2.523438 -9.285156 3.390625 -12.453125 C 4.253906 -15.617188 5.898438 -19.09375 8.328125 -22.875 C 10.609375 -25.875 13.441406 -27.375 16.828125 -27.375 C 17.671875 -27.375 18.820312 -27.191406 20.28125 -26.828125 C 21.738281 -26.472656 23.394531 -25.484375 25.25 -23.859375 C 27.53125 -21.921875 29.179688 -19.8125 30.203125 -17.53125 C 31.023438 -15.664062 31.4375 -13.828125 31.4375 -12.015625 C 31.4375 -11.609375 31.375 -10.769531 31.25 -9.5 C 31.132812 -8.238281 30.410156 -6.78125 29.078125 -5.125 C 27.722656 -3.53125 26.132812 -2.390625 24.3125 -1.703125 C 23.082031 -1.234375 21.847656 -1 20.609375 -1 C 20.003906 -1 19.078125 -1.101562 17.828125 -1.3125 C 16.585938 -1.519531 15.203125 -2.332031 13.671875 -3.75 C 12.921875 -4.53125 11.875 -5.953125 10.53125 -8.015625 C 9.988281 -5.515625 9.71875 -3.414062 9.71875 -1.71875 C 9.71875 -0.75 9.816406 0.65625 10.015625 2.5 C 10.210938 4.351562 10.816406 7.003906 11.828125 10.453125 C 11.867188 10.441406 11.703125 10.4375 11.328125 10.4375 Z M 17.234375 -6.71875 C 19.640625 -6.71875 21.503906 -8.128906 22.828125 -10.953125 C 23.222656 -11.796875 23.523438 -12.753906 23.734375 -13.828125 C 23.816406 -14.328125 23.859375 -14.820312 23.859375 -15.3125 C 23.859375 -15.90625 23.769531 -16.617188 23.59375 -17.453125 C 23.414062 -18.285156 22.863281 -19.113281 21.9375 -19.9375 C 21.238281 -20.488281 20.507812 -20.765625 19.75 -20.765625 C 19.476562 -20.765625 19.023438 -20.6875 18.390625 -20.53125 C 17.765625 -20.375 17.019531 -19.867188 16.15625 -19.015625 C 15.289062 -18.171875 14.546875 -17.207031 13.921875 -16.125 C 13.191406 -14.78125 12.828125 -13.304688 12.828125 -11.703125 C 12.828125 -10.109375 13.398438 -8.769531 14.546875 -7.6875 C 15.410156 -7.039062 16.304688 -6.71875 17.234375 -6.71875 Z M 17.234375 -6.71875 "/></g></g></g><g fill="#ffffff" fill-opacity="0.302"><g transform="translate(115.699732, 191.331887)"><g><path d="M 7.328125 -0.453125 C 6.285156 -0.453125 5.046875 -0.691406 3.609375 -1.171875 C 2.171875 -1.648438 0.820312 -2.726562 -0.4375 -4.40625 C -1.375 -5.4375 -2.164062 -6.644531 -2.8125 -8.03125 C -3.457031 -9.425781 -3.929688 -10.769531 -4.234375 -12.0625 C -4.390625 -12.851562 -4.46875 -13.546875 -4.46875 -14.140625 C -4.46875 -15.097656 -4.3125 -15.578125 -4 -15.578125 C -3.945312 -15.578125 -3.960938 -15.59375 -4.046875 -15.625 C -3.773438 -15.164062 -3.429688 -14.535156 -3.015625 -13.734375 C -2.441406 -12.523438 -1.753906 -11.316406 -0.953125 -10.109375 C -0.160156 -8.898438 0.8125 -8.007812 1.96875 -7.4375 C 2.507812 -7.15625 3.085938 -7.015625 3.703125 -7.015625 C 4.484375 -7.015625 5.320312 -7.226562 6.21875 -7.65625 C 7.363281 -8.3125 8.175781 -9.507812 8.65625 -11.25 C 9.039062 -12.695312 9.234375 -14.296875 9.234375 -16.046875 C 9.234375 -16.242188 9.21875 -16.890625 9.1875 -17.984375 C 9.164062 -19.078125 8.941406 -20.492188 8.515625 -22.234375 C 8.097656 -23.984375 7.6875 -25.125 7.28125 -25.65625 C 8.394531 -26.363281 9.753906 -26.851562 11.359375 -27.125 C 11.867188 -27.226562 12.359375 -27.28125 12.828125 -27.28125 C 13.785156 -27.28125 14.71875 -27.054688 15.625 -26.609375 C 16.53125 -26.160156 17.082031 -25.21875 17.28125 -23.78125 C 18.007812 -20.53125 18.375 -17.644531 18.375 -15.125 C 18.375 -13.90625 18.195312 -12.234375 17.84375 -10.109375 C 17.5 -7.992188 16.578125 -6.046875 15.078125 -4.265625 C 12.941406 -1.722656 10.359375 -0.453125 7.328125 -0.453125 Z M 8.734375 2.609375 C 8.378906 2.703125 8.222656 2.882812 8.265625 3.15625 C 8.304688 3.425781 8.3125 3.953125 8.28125 4.734375 C 8.257812 5.515625 8.171875 6.289062 8.015625 7.0625 C 7.859375 7.84375 7.644531 8.441406 7.375 8.859375 C 6.320312 9.296875 5.203125 9.546875 4.015625 9.609375 C 2.835938 9.679688 1.914062 9.3125 1.25 8.5 C 1.019531 8.125 0.898438 7.519531 0.890625 6.6875 C 0.890625 5.863281 0.984375 5.085938 1.171875 4.359375 C 1.359375 3.640625 1.445312 3.28125 1.4375 3.28125 C 1.832031 3.613281 2.722656 3.734375 4.109375 3.640625 C 5.503906 3.554688 7.046875 3.210938 8.734375 2.609375 Z M 17.640625 2.609375 C 17.285156 2.703125 17.128906 2.882812 17.171875 3.15625 C 17.210938 3.425781 17.21875 3.953125 17.1875 4.734375 C 17.164062 5.515625 17.070312 6.289062 16.90625 7.0625 C 16.738281 7.84375 16.523438 8.441406 16.265625 8.859375 C 15.210938 9.296875 14.09375 9.546875 12.90625 9.609375 C 11.71875 9.679688 10.796875 9.3125 10.140625 8.5 C 9.921875 8.125 9.800781 7.519531 9.78125 6.6875 C 9.769531 5.863281 9.859375 5.085938 10.046875 4.359375 C 10.242188 3.640625 10.34375 3.28125 10.34375 3.28125 C 10.738281 3.613281 11.628906 3.734375 13.015625 3.640625 C 14.398438 3.554688 15.941406 3.210938 17.640625 2.609375 Z M 17.640625 2.609375 "/></g></g></g><g fill="#ffffff" fill-opacity="0.302"><g transform="translate(133.642636, 191.331887)"><g><path d="M 9.28125 -31.71875 C 9.445312 -31.71875 10.296875 -31.019531 11.828125 -29.625 C 14.515625 -27.675781 17.070312 -26.113281 19.5 -24.9375 C 21.8125 -23.882812 24.695312 -22.851562 28.15625 -21.84375 C 30.632812 -21.238281 33.222656 -20.863281 35.921875 -20.71875 C 38.628906 -20.570312 39.78125 -18.851562 39.375 -15.5625 C 38.976562 -12.28125 37.863281 -10.847656 36.03125 -11.265625 C 34.132812 -11.265625 31.644531 -10.140625 28.5625 -7.890625 C 25.488281 -5.640625 22.546875 -3.765625 19.734375 -2.265625 C 15.210938 -0.160156 10.523438 0.238281 5.671875 -1.0625 C 0.828125 -2.363281 -2.726562 -5.109375 -5 -9.296875 C -7.28125 -13.484375 -6.628906 -14.375 -3.046875 -11.96875 C 0.535156 -9.570312 5.15625 -8.375 10.8125 -8.375 C 14.707031 -8.375 20.410156 -10.804688 27.921875 -15.671875 C 21.785156 -15.847656 16.242188 -16.78125 11.296875 -18.46875 C 8.828125 -19.613281 7.460938 -20.664062 7.203125 -21.625 C 6.960938 -22.332031 6.84375 -23.082031 6.84375 -23.875 L 6.84375 -24.359375 C 6.84375 -28.242188 7.457031 -30.648438 8.6875 -31.578125 C 8.6875 -31.578125 8.882812 -31.625 9.28125 -31.71875 Z M 23.09375 0.671875 C 24.84375 1.304688 26.4375 1.664062 27.875 1.75 C 29.320312 1.84375 30.238281 1.710938 30.625 1.359375 C 30.65625 1.378906 30.765625 1.765625 30.953125 2.515625 C 31.148438 3.265625 31.238281 4.070312 31.21875 4.9375 C 31.207031 5.8125 31.09375 6.429688 30.875 6.796875 C 30.1875 7.660156 29.222656 8.054688 27.984375 7.984375 C 26.742188 7.921875 25.578125 7.648438 24.484375 7.171875 C 24.210938 6.742188 23.988281 6.125 23.8125 5.3125 C 23.644531 4.507812 23.550781 3.707031 23.53125 2.90625 C 23.507812 2.101562 23.519531 1.550781 23.5625 1.25 C 23.601562 0.957031 23.445312 0.765625 23.09375 0.671875 Z M 23.09375 0.671875 "/></g></g></g><g fill="#ffffff" fill-opacity="0.302"><g transform="translate(174.361067, 191.331887)"><g/></g></g><g fill="#ffffff" fill-opacity="0.302"><g transform="translate(183.930616, 191.331887)"><g><path d="M 30.21875 -1.4375 C 30.300781 -2.4375 30.300781 -3.378906 30.21875 -4.265625 C 30.0625 -5.660156 29.820312 -7.054688 29.5 -8.453125 C 29.226562 -9.710938 29.015625 -10.953125 28.859375 -12.171875 C 28.710938 -13.390625 28.742188 -14.582031 28.953125 -15.75 C 29.429688 -17.707031 30.515625 -18.925781 32.203125 -19.40625 C 33.890625 -19.882812 35.628906 -19.734375 37.421875 -18.953125 C 37.304688 -18.722656 37.253906 -18.210938 37.265625 -17.421875 C 37.273438 -16.640625 37.328125 -15.847656 37.421875 -15.046875 C 37.503906 -14.460938 37.5625 -13.90625 37.59375 -13.375 C 37.570312 -12.75 37.640625 -10.164062 37.796875 -5.625 C 37.867188 -4.695312 37.816406 -3.859375 37.640625 -3.109375 C 37.671875 -2.597656 37.6875 -2.101562 37.6875 -1.625 C 37.550781 1.113281 36.4375 3.492188 34.34375 5.515625 C 32.257812 7.535156 29.628906 8.960938 26.453125 9.796875 C 23.285156 10.628906 20.019531 10.648438 16.65625 9.859375 C 13.875 9.085938 11.535156 7.910156 9.640625 6.328125 C 7.753906 4.742188 6.328125 2.867188 5.359375 0.703125 C 4.398438 -1.453125 3.921875 -3.710938 3.921875 -6.078125 C 3.921875 -8.097656 4.238281 -9.929688 4.875 -11.578125 C 5.519531 -13.234375 6.351562 -14.617188 7.375 -15.734375 C 8.394531 -16.859375 9.488281 -17.648438 10.65625 -18.109375 C 11.832031 -18.578125 12.976562 -18.664062 14.09375 -18.375 C 14.789062 -18.15625 15.3125 -17.738281 15.65625 -17.125 C 16 -16.519531 16.207031 -15.84375 16.28125 -15.09375 C 16.351562 -14.34375 16.359375 -13.753906 16.296875 -13.328125 C 16.234375 -12.898438 16.304688 -12.703125 16.515625 -12.734375 C 15.265625 -12.703125 14.09375 -12.457031 13 -12 C 11.90625 -11.539062 11 -10.867188 10.28125 -9.984375 C 9.570312 -9.097656 9.21875 -8.023438 9.21875 -6.765625 C 9.28125 -4.898438 10.164062 -3.175781 11.875 -1.59375 C 13.59375 -0.0195312 15.773438 1.09375 18.421875 1.75 C 19.742188 2.03125 21.15625 2.113281 22.65625 2 C 24.15625 1.894531 25.582031 1.546875 26.9375 0.953125 C 28.1875 0.410156 29.28125 -0.382812 30.21875 -1.4375 Z M 19.859375 -27.03125 C 21.273438 -26.175781 22.609375 -25.578125 23.859375 -25.234375 C 25.117188 -24.898438 25.945312 -24.847656 26.34375 -25.078125 C 26.320312 -25.085938 26.332031 -24.753906 26.375 -24.078125 C 26.414062 -23.398438 26.351562 -22.6875 26.1875 -21.9375 C 26.03125 -21.1875 25.816406 -20.671875 25.546875 -20.390625 C 24.828125 -19.765625 23.9375 -19.585938 22.875 -19.859375 C 21.820312 -20.128906 20.859375 -20.566406 19.984375 -21.171875 C 19.816406 -21.585938 19.734375 -22.15625 19.734375 -22.875 C 19.734375 -23.601562 19.789062 -24.320312 19.90625 -25.03125 C 20.03125 -25.75 20.132812 -26.222656 20.21875 -26.453125 C 20.300781 -26.679688 20.179688 -26.875 19.859375 -27.03125 Z M 19.859375 -27.03125 "/></g></g></g><g fill="#ffffff" fill-opacity="0.302"><g transform="translate(221.610721, 191.331887)"><g><path d="M 7.328125 -0.453125 C 6.285156 -0.453125 5.046875 -0.691406 3.609375 -1.171875 C 2.171875 -1.648438 0.820312 -2.726562 -0.4375 -4.40625 C -1.375 -5.4375 -2.164062 -6.644531 -2.8125 -8.03125 C -3.457031 -9.425781 -3.929688 -10.769531 -4.234375 -12.0625 C -4.390625 -12.851562 -4.46875 -13.546875 -4.46875 -14.140625 C -4.46875 -15.097656 -4.3125 -15.578125 -4 -15.578125 C -3.945312 -15.578125 -3.960938 -15.59375 -4.046875 -15.625 C -3.773438 -15.164062 -3.429688 -14.535156 -3.015625 -13.734375 C -2.441406 -12.523438 -1.753906 -11.316406 -0.953125 -10.109375 C -0.160156 -8.898438 0.8125 -8.007812 1.96875 -7.4375 C 2.507812 -7.15625 3.085938 -7.015625 3.703125 -7.015625 C 4.484375 -7.015625 5.320312 -7.226562 6.21875 -7.65625 C 7.363281 -8.3125 8.175781 -9.507812 8.65625 -11.25 C 9.039062 -12.695312 9.234375 -14.296875 9.234375 -16.046875 C 9.234375 -16.242188 9.21875 -16.890625 9.1875 -17.984375 C 9.164062 -19.078125 8.941406 -20.492188 8.515625 -22.234375 C 8.097656 -23.984375 7.6875 -25.125 7.28125 -25.65625 C 8.394531 -26.363281 9.753906 -26.851562 11.359375 -27.125 C 11.867188 -27.226562 12.359375 -27.28125 12.828125 -27.28125 C 13.785156 -27.28125 14.71875 -27.054688 15.625 -26.609375 C 16.53125 -26.160156 17.082031 -25.21875 17.28125 -23.78125 C 18.007812 -20.53125 18.375 -17.644531 18.375 -15.125 C 18.375 -13.90625 18.195312 -12.234375 17.84375 -10.109375 C 17.5 -7.992188 16.578125 -6.046875 15.078125 -4.265625 C 12.941406 -1.722656 10.359375 -0.453125 7.328125 -0.453125 Z M 8.734375 2.609375 C 8.378906 2.703125 8.222656 2.882812 8.265625 3.15625 C 8.304688 3.425781 8.3125 3.953125 8.28125 4.734375 C 8.257812 5.515625 8.171875 6.289062 8.015625 7.0625 C 7.859375 7.84375 7.644531 8.441406 7.375 8.859375 C 6.320312 9.296875 5.203125 9.546875 4.015625 9.609375 C 2.835938 9.679688 1.914062 9.3125 1.25 8.5 C 1.019531 8.125 0.898438 7.519531 0.890625 6.6875 C 0.890625 5.863281 0.984375 5.085938 1.171875 4.359375 C 1.359375 3.640625 1.445312 3.28125 1.4375 3.28125 C 1.832031 3.613281 2.722656 3.734375 4.109375 3.640625 C 5.503906 3.554688 7.046875 3.210938 8.734375 2.609375 Z M 17.640625 2.609375 C 17.285156 2.703125 17.128906 2.882812 17.171875 3.15625 C 17.210938 3.425781 17.21875 3.953125 17.1875 4.734375 C 17.164062 5.515625 17.070312 6.289062 16.90625 7.0625 C 16.738281 7.84375 16.523438 8.441406 16.265625 8.859375 C 15.210938 9.296875 14.09375 9.546875 12.90625 9.609375 C 11.71875 9.679688 10.796875 9.3125 10.140625 8.5 C 9.921875 8.125 9.800781 7.519531 9.78125 6.6875 C 9.769531 5.863281 9.859375 5.085938 10.046875 4.359375 C 10.242188 3.640625 10.34375 3.28125 10.34375 3.28125 C 10.738281 3.613281 11.628906 3.734375 13.015625 3.640625 C 14.398438 3.554688 15.941406 3.210938 17.640625 2.609375 Z M 17.640625 2.609375 "/></g></g></g><g fill="#ffffff" fill-opacity="0.302"><g transform="translate(239.553625, 191.331887)"><g><path d="M 10 -0.171875 C 7.769531 0.0664062 5.234375 -0.628906 2.390625 -2.265625 C -0.441406 -3.898438 -2.820312 -7.929688 -4.75 -14.359375 L -4.75 -14.375 C -4.78125 -14.550781 -4.707031 -14.695312 -4.53125 -14.8125 C -4.363281 -14.9375 -4.144531 -14.9375 -3.875 -14.8125 C -3.601562 -14.695312 -3.195312 -14.140625 -2.65625 -13.140625 C -2.113281 -12.148438 -1.171875 -10.519531 0.171875 -8.25 C 1.523438 -5.988281 2.882812 -4.859375 4.25 -4.859375 C 5.613281 -4.859375 6.265625 -5.59375 6.203125 -7.0625 C 6.148438 -8.53125 6.109375 -9.316406 6.078125 -9.421875 C 5.796875 -10.847656 5.566406 -12.238281 5.390625 -13.59375 C 5.210938 -14.945312 5.242188 -16.285156 5.484375 -17.609375 C 5.816406 -19.078125 6.472656 -20.171875 7.453125 -20.890625 C 8.441406 -21.609375 9.660156 -21.96875 11.109375 -21.96875 C 12.554688 -21.976562 13.890625 -21.722656 15.109375 -21.203125 C 14.929688 -20.898438 14.847656 -20.3125 14.859375 -19.4375 C 14.878906 -18.570312 14.945312 -17.695312 15.0625 -16.8125 C 15.132812 -16.164062 15.1875 -15.546875 15.21875 -14.953125 C 15.207031 -14.148438 15.515625 -13.171875 16.140625 -12.015625 C 16.773438 -10.859375 17.5 -9.769531 18.3125 -8.75 C 19.132812 -7.726562 20.015625 -6.921875 20.953125 -6.328125 C 21.890625 -5.742188 22.289062 -6.242188 22.15625 -7.828125 C 21.84375 -10.265625 21.476562 -12.222656 21.0625 -13.703125 C 20.757812 -14.835938 20.546875 -15.894531 20.421875 -16.875 C 20.304688 -17.851562 20.367188 -18.984375 20.609375 -20.265625 C 20.921875 -21.765625 21.570312 -22.875 22.5625 -23.59375 C 23.550781 -24.3125 24.765625 -24.671875 26.203125 -24.671875 C 27.648438 -24.679688 28.972656 -24.414062 30.171875 -23.875 C 29.929688 -23.476562 29.722656 -22.8125 29.546875 -21.875 C 29.179688 -20.207031 29.382812 -18.363281 30.15625 -16.34375 C 30.9375 -14.332031 31.921875 -12.472656 33.109375 -10.765625 C 34.304688 -9.054688 35.539062 -7.679688 36.8125 -6.640625 C 38.082031 -5.609375 38.65625 -5.992188 38.53125 -7.796875 C 38.269531 -9.890625 37.957031 -11.8125 37.59375 -13.5625 C 37.226562 -15.320312 36.960938 -16.960938 36.796875 -18.484375 C 36.628906 -20.003906 36.6875 -21.484375 36.96875 -22.921875 C 37.300781 -24.421875 37.960938 -25.53125 38.953125 -26.25 C 39.941406 -26.976562 41.15625 -27.34375 42.59375 -27.34375 C 44.039062 -27.34375 45.359375 -27.082031 46.546875 -26.5625 C 46.078125 -25.75 45.796875 -24.550781 45.703125 -22.96875 C 45.617188 -21.382812 45.707031 -19.710938 45.96875 -17.953125 C 46.238281 -16.191406 46.566406 -14.425781 46.953125 -12.65625 C 47.429688 -10.320312 47.769531 -8.1875 47.96875 -6.25 C 48.164062 -4.3125 48 -2.78125 47.46875 -1.65625 C 46.945312 -0.707031 45.976562 -0.15625 44.5625 0 C 43.15625 0.144531 41.628906 -0.171875 39.984375 -0.953125 C 38.691406 -1.628906 37.421875 -2.457031 36.171875 -3.4375 C 34.929688 -4.425781 33.332031 -6.234375 31.375 -8.859375 C 31.769531 -5.285156 31.671875 -2.882812 31.078125 -1.65625 C 30.535156 -0.707031 29.570312 -0.15625 28.1875 0 C 26.800781 0.144531 25.296875 -0.171875 23.671875 -0.953125 C 22.410156 -1.597656 21.175781 -2.382812 19.96875 -3.3125 C 18.769531 -4.25 17.234375 -5.878906 15.359375 -8.203125 C 15.535156 -5.609375 15.242188 -3.679688 14.484375 -2.421875 C 13.734375 -1.171875 12.238281 -0.421875 10 -0.171875 Z M 10 -0.171875 "/></g></g></g><g fill="#ffffff" fill-opacity="0.502"><g transform="translate(85.412109, 191.270627)"><g><path d="M 11.328125 10.4375 C 10.523438 10.4375 9.566406 10.164062 8.453125 9.625 C 7.347656 9.09375 6.269531 8.253906 5.21875 7.109375 C 4.164062 5.960938 3.457031 4.804688 3.09375 3.640625 C 2.5 1.722656 2.164062 -0.570312 2.09375 -3.25 L 2.09375 -3.921875 C 2.09375 -6.441406 2.523438 -9.285156 3.390625 -12.453125 C 4.253906 -15.617188 5.898438 -19.09375 8.328125 -22.875 C 10.609375 -25.875 13.441406 -27.375 16.828125 -27.375 C 17.671875 -27.375 18.820312 -27.191406 20.28125 -26.828125 C 21.738281 -26.472656 23.394531 -25.484375 25.25 -23.859375 C 27.53125 -21.921875 29.179688 -19.8125 30.203125 -17.53125 C 31.023438 -15.664062 31.4375 -13.828125 31.4375 -12.015625 C 31.4375 -11.609375 31.375 -10.769531 31.25 -9.5 C 31.132812 -8.238281 30.410156 -6.78125 29.078125 -5.125 C 27.722656 -3.53125 26.132812 -2.390625 24.3125 -1.703125 C 23.082031 -1.234375 21.847656 -1 20.609375 -1 C 20.003906 -1 19.078125 -1.101562 17.828125 -1.3125 C 16.585938 -1.519531 15.203125 -2.332031 13.671875 -3.75 C 12.921875 -4.53125 11.875 -5.953125 10.53125 -8.015625 C 9.988281 -5.515625 9.71875 -3.414062 9.71875 -1.71875 C 9.71875 -0.75 9.816406 0.65625 10.015625 2.5 C 10.210938 4.351562 10.816406 7.003906 11.828125 10.453125 C 11.867188 10.441406 11.703125 10.4375 11.328125 10.4375 Z M 17.234375 -6.71875 C 19.640625 -6.71875 21.503906 -8.128906 22.828125 -10.953125 C 23.222656 -11.796875 23.523438 -12.753906 23.734375 -13.828125 C 23.816406 -14.328125 23.859375 -14.820312 23.859375 -15.3125 C 23.859375 -15.90625 23.769531 -16.617188 23.59375 -17.453125 C 23.414062 -18.285156 22.863281 -19.113281 21.9375 -19.9375 C 21.238281 -20.488281 20.507812 -20.765625 19.75 -20.765625 C 19.476562 -20.765625 19.023438 -20.6875 18.390625 -20.53125 C 17.765625 -20.375 17.019531 -19.867188 16.15625 -19.015625 C 15.289062 -18.171875 14.546875 -17.207031 13.921875 -16.125 C 13.191406 -14.78125 12.828125 -13.304688 12.828125 -11.703125 C 12.828125 -10.109375 13.398438 -8.769531 14.546875 -7.6875 C 15.410156 -7.039062 16.304688 -6.71875 17.234375 -6.71875 Z M 17.234375 -6.71875 "/></g></g></g><g fill="#ffffff" fill-opacity="0.502"><g transform="translate(115.699732, 191.270627)"><g><path d="M 7.328125 -0.453125 C 6.285156 -0.453125 5.046875 -0.691406 3.609375 -1.171875 C 2.171875 -1.648438 0.820312 -2.726562 -0.4375 -4.40625 C -1.375 -5.4375 -2.164062 -6.644531 -2.8125 -8.03125 C -3.457031 -9.425781 -3.929688 -10.769531 -4.234375 -12.0625 C -4.390625 -12.851562 -4.46875 -13.546875 -4.46875 -14.140625 C -4.46875 -15.097656 -4.3125 -15.578125 -4 -15.578125 C -3.945312 -15.578125 -3.960938 -15.59375 -4.046875 -15.625 C -3.773438 -15.164062 -3.429688 -14.535156 -3.015625 -13.734375 C -2.441406 -12.523438 -1.753906 -11.316406 -0.953125 -10.109375 C -0.160156 -8.898438 0.8125 -8.007812 1.96875 -7.4375 C 2.507812 -7.15625 3.085938 -7.015625 3.703125 -7.015625 C 4.484375 -7.015625 5.320312 -7.226562 6.21875 -7.65625 C 7.363281 -8.3125 8.175781 -9.507812 8.65625 -11.25 C 9.039062 -12.695312 9.234375 -14.296875 9.234375 -16.046875 C 9.234375 -16.242188 9.21875 -16.890625 9.1875 -17.984375 C 9.164062 -19.078125 8.941406 -20.492188 8.515625 -22.234375 C 8.097656 -23.984375 7.6875 -25.125 7.28125 -25.65625 C 8.394531 -26.363281 9.753906 -26.851562 11.359375 -27.125 C 11.867188 -27.226562 12.359375 -27.28125 12.828125 -27.28125 C 13.785156 -27.28125 14.71875 -27.054688 15.625 -26.609375 C 16.53125 -26.160156 17.082031 -25.21875 17.28125 -23.78125 C 18.007812 -20.53125 18.375 -17.644531 18.375 -15.125 C 18.375 -13.90625 18.195312 -12.234375 17.84375 -10.109375 C 17.5 -7.992188 16.578125 -6.046875 15.078125 -4.265625 C 12.941406 -1.722656 10.359375 -0.453125 7.328125 -0.453125 Z M 8.734375 2.609375 C 8.378906 2.703125 8.222656 2.882812 8.265625 3.15625 C 8.304688 3.425781 8.3125 3.953125 8.28125 4.734375 C 8.257812 5.515625 8.171875 6.289062 8.015625 7.0625 C 7.859375 7.84375 7.644531 8.441406 7.375 8.859375 C 6.320312 9.296875 5.203125 9.546875 4.015625 9.609375 C 2.835938 9.679688 1.914062 9.3125 1.25 8.5 C 1.019531 8.125 0.898438 7.519531 0.890625 6.6875 C 0.890625 5.863281 0.984375 5.085938 1.171875 4.359375 C 1.359375 3.640625 1.445312 3.28125 1.4375 3.28125 C 1.832031 3.613281 2.722656 3.734375 4.109375 3.640625 C 5.503906 3.554688 7.046875 3.210938 8.734375 2.609375 Z M 17.640625 2.609375 C 17.285156 2.703125 17.128906 2.882812 17.171875 3.15625 C 17.210938 3.425781 17.21875 3.953125 17.1875 4.734375 C 17.164062 5.515625 17.070312 6.289062 16.90625 7.0625 C 16.738281 7.84375 16.523438 8.441406 16.265625 8.859375 C 15.210938 9.296875 14.09375 9.546875 12.90625 9.609375 C 11.71875 9.679688 10.796875 9.3125 10.140625 8.5 C 9.921875 8.125 9.800781 7.519531 9.78125 6.6875 C 9.769531 5.863281 9.859375 5.085938 10.046875 4.359375 C 10.242188 3.640625 10.34375 3.28125 10.34375 3.28125 C 10.738281 3.613281 11.628906 3.734375 13.015625 3.640625 C 14.398438 3.554688 15.941406 3.210938 17.640625 2.609375 Z M 17.640625 2.609375 "/></g></g></g><g fill="#ffffff" fill-opacity="0.502"><g transform="translate(133.642636, 191.270627)"><g><path d="M 9.28125 -31.71875 C 9.445312 -31.71875 10.296875 -31.019531 11.828125 -29.625 C 14.515625 -27.675781 17.070312 -26.113281 19.5 -24.9375 C 21.8125 -23.882812 24.695312 -22.851562 28.15625 -21.84375 C 30.632812 -21.238281 33.222656 -20.863281 35.921875 -20.71875 C 38.628906 -20.570312 39.78125 -18.851562 39.375 -15.5625 C 38.976562 -12.28125 37.863281 -10.847656 36.03125 -11.265625 C 34.132812 -11.265625 31.644531 -10.140625 28.5625 -7.890625 C 25.488281 -5.640625 22.546875 -3.765625 19.734375 -2.265625 C 15.210938 -0.160156 10.523438 0.238281 5.671875 -1.0625 C 0.828125 -2.363281 -2.726562 -5.109375 -5 -9.296875 C -7.28125 -13.484375 -6.628906 -14.375 -3.046875 -11.96875 C 0.535156 -9.570312 5.15625 -8.375 10.8125 -8.375 C 14.707031 -8.375 20.410156 -10.804688 27.921875 -15.671875 C 21.785156 -15.847656 16.242188 -16.78125 11.296875 -18.46875 C 8.828125 -19.613281 7.460938 -20.664062 7.203125 -21.625 C 6.960938 -22.332031 6.84375 -23.082031 6.84375 -23.875 L 6.84375 -24.359375 C 6.84375 -28.242188 7.457031 -30.648438 8.6875 -31.578125 C 8.6875 -31.578125 8.882812 -31.625 9.28125 -31.71875 Z M 23.09375 0.671875 C 24.84375 1.304688 26.4375 1.664062 27.875 1.75 C 29.320312 1.84375 30.238281 1.710938 30.625 1.359375 C 30.65625 1.378906 30.765625 1.765625 30.953125 2.515625 C 31.148438 3.265625 31.238281 4.070312 31.21875 4.9375 C 31.207031 5.8125 31.09375 6.429688 30.875 6.796875 C 30.1875 7.660156 29.222656 8.054688 27.984375 7.984375 C 26.742188 7.921875 25.578125 7.648438 24.484375 7.171875 C 24.210938 6.742188 23.988281 6.125 23.8125 5.3125 C 23.644531 4.507812 23.550781 3.707031 23.53125 2.90625 C 23.507812 2.101562 23.519531 1.550781 23.5625 1.25 C 23.601562 0.957031 23.445312 0.765625 23.09375 0.671875 Z M 23.09375 0.671875 "/></g></g></g><g fill="#ffffff" fill-opacity="0.502"><g transform="translate(174.361067, 191.270627)"><g/></g></g><g fill="#ffffff" fill-opacity="0.502"><g transform="translate(183.930616, 191.270627)"><g><path d="M 30.21875 -1.4375 C 30.300781 -2.4375 30.300781 -3.378906 30.21875 -4.265625 C 30.0625 -5.660156 29.820312 -7.054688 29.5 -8.453125 C 29.226562 -9.710938 29.015625 -10.953125 28.859375 -12.171875 C 28.710938 -13.390625 28.742188 -14.582031 28.953125 -15.75 C 29.429688 -17.707031 30.515625 -18.925781 32.203125 -19.40625 C 33.890625 -19.882812 35.628906 -19.734375 37.421875 -18.953125 C 37.304688 -18.722656 37.253906 -18.210938 37.265625 -17.421875 C 37.273438 -16.640625 37.328125 -15.847656 37.421875 -15.046875 C 37.503906 -14.460938 37.5625 -13.90625 37.59375 -13.375 C 37.570312 -12.75 37.640625 -10.164062 37.796875 -5.625 C 37.867188 -4.695312 37.816406 -3.859375 37.640625 -3.109375 C 37.671875 -2.597656 37.6875 -2.101562 37.6875 -1.625 C 37.550781 1.113281 36.4375 3.492188 34.34375 5.515625 C 32.257812 7.535156 29.628906 8.960938 26.453125 9.796875 C 23.285156 10.628906 20.019531 10.648438 16.65625 9.859375 C 13.875 9.085938 11.535156 7.910156 9.640625 6.328125 C 7.753906 4.742188 6.328125 2.867188 5.359375 0.703125 C 4.398438 -1.453125 3.921875 -3.710938 3.921875 -6.078125 C 3.921875 -8.097656 4.238281 -9.929688 4.875 -11.578125 C 5.519531 -13.234375 6.351562 -14.617188 7.375 -15.734375 C 8.394531 -16.859375 9.488281 -17.648438 10.65625 -18.109375 C 11.832031 -18.578125 12.976562 -18.664062 14.09375 -18.375 C 14.789062 -18.15625 15.3125 -17.738281 15.65625 -17.125 C 16 -16.519531 16.207031 -15.84375 16.28125 -15.09375 C 16.351562 -14.34375 16.359375 -13.753906 16.296875 -13.328125 C 16.234375 -12.898438 16.304688 -12.703125 16.515625 -12.734375 C 15.265625 -12.703125 14.09375 -12.457031 13 -12 C 11.90625 -11.539062 11 -10.867188 10.28125 -9.984375 C 9.570312 -9.097656 9.21875 -8.023438 9.21875 -6.765625 C 9.28125 -4.898438 10.164062 -3.175781 11.875 -1.59375 C 13.59375 -0.0195312 15.773438 1.09375 18.421875 1.75 C 19.742188 2.03125 21.15625 2.113281 22.65625 2 C 24.15625 1.894531 25.582031 1.546875 26.9375 0.953125 C 28.1875 0.410156 29.28125 -0.382812 30.21875 -1.4375 Z M 19.859375 -27.03125 C 21.273438 -26.175781 22.609375 -25.578125 23.859375 -25.234375 C 25.117188 -24.898438 25.945312 -24.847656 26.34375 -25.078125 C 26.320312 -25.085938 26.332031 -24.753906 26.375 -24.078125 C 26.414062 -23.398438 26.351562 -22.6875 26.1875 -21.9375 C 26.03125 -21.1875 25.816406 -20.671875 25.546875 -20.390625 C 24.828125 -19.765625 23.9375 -19.585938 22.875 -19.859375 C 21.820312 -20.128906 20.859375 -20.566406 19.984375 -21.171875 C 19.816406 -21.585938 19.734375 -22.15625 19.734375 -22.875 C 19.734375 -23.601562 19.789062 -24.320312 19.90625 -25.03125 C 20.03125 -25.75 20.132812 -26.222656 20.21875 -26.453125 C 20.300781 -26.679688 20.179688 -26.875 19.859375 -27.03125 Z M 19.859375 -27.03125 "/></g></g></g><g fill="#ffffff" fill-opacity="0.502"><g transform="translate(221.610721, 191.270627)"><g><path d="M 7.328125 -0.453125 C 6.285156 -0.453125 5.046875 -0.691406 3.609375 -1.171875 C 2.171875 -1.648438 0.820312 -2.726562 -0.4375 -4.40625 C -1.375 -5.4375 -2.164062 -6.644531 -2.8125 -8.03125 C -3.457031 -9.425781 -3.929688 -10.769531 -4.234375 -12.0625 C -4.390625 -12.851562 -4.46875 -13.546875 -4.46875 -14.140625 C -4.46875 -15.097656 -4.3125 -15.578125 -4 -15.578125 C -3.945312 -15.578125 -3.960938 -15.59375 -4.046875 -15.625 C -3.773438 -15.164062 -3.429688 -14.535156 -3.015625 -13.734375 C -2.441406 -12.523438 -1.753906 -11.316406 -0.953125 -10.109375 C -0.160156 -8.898438 0.8125 -8.007812 1.96875 -7.4375 C 2.507812 -7.15625 3.085938 -7.015625 3.703125 -7.015625 C 4.484375 -7.015625 5.320312 -7.226562 6.21875 -7.65625 C 7.363281 -8.3125 8.175781 -9.507812 8.65625 -11.25 C 9.039062 -12.695312 9.234375 -14.296875 9.234375 -16.046875 C 9.234375 -16.242188 9.21875 -16.890625 9.1875 -17.984375 C 9.164062 -19.078125 8.941406 -20.492188 8.515625 -22.234375 C 8.097656 -23.984375 7.6875 -25.125 7.28125 -25.65625 C 8.394531 -26.363281 9.753906 -26.851562 11.359375 -27.125 C 11.867188 -27.226562 12.359375 -27.28125 12.828125 -27.28125 C 13.785156 -27.28125 14.71875 -27.054688 15.625 -26.609375 C 16.53125 -26.160156 17.082031 -25.21875 17.28125 -23.78125 C 18.007812 -20.53125 18.375 -17.644531 18.375 -15.125 C 18.375 -13.90625 18.195312 -12.234375 17.84375 -10.109375 C 17.5 -7.992188 16.578125 -6.046875 15.078125 -4.265625 C 12.941406 -1.722656 10.359375 -0.453125 7.328125 -0.453125 Z M 8.734375 2.609375 C 8.378906 2.703125 8.222656 2.882812 8.265625 3.15625 C 8.304688 3.425781 8.3125 3.953125 8.28125 4.734375 C 8.257812 5.515625 8.171875 6.289062 8.015625 7.0625 C 7.859375 7.84375 7.644531 8.441406 7.375 8.859375 C 6.320312 9.296875 5.203125 9.546875 4.015625 9.609375 C 2.835938 9.679688 1.914062 9.3125 1.25 8.5 C 1.019531 8.125 0.898438 7.519531 0.890625 6.6875 C 0.890625 5.863281 0.984375 5.085938 1.171875 4.359375 C 1.359375 3.640625 1.445312 3.28125 1.4375 3.28125 C 1.832031 3.613281 2.722656 3.734375 4.109375 3.640625 C 5.503906 3.554688 7.046875 3.210938 8.734375 2.609375 Z M 17.640625 2.609375 C 17.285156 2.703125 17.128906 2.882812 17.171875 3.15625 C 17.210938 3.425781 17.21875 3.953125 17.1875 4.734375 C 17.164062 5.515625 17.070312 6.289062 16.90625 7.0625 C 16.738281 7.84375 16.523438 8.441406 16.265625 8.859375 C 15.210938 9.296875 14.09375 9.546875 12.90625 9.609375 C 11.71875 9.679688 10.796875 9.3125 10.140625 8.5 C 9.921875 8.125 9.800781 7.519531 9.78125 6.6875 C 9.769531 5.863281 9.859375 5.085938 10.046875 4.359375 C 10.242188 3.640625 10.34375 3.28125 10.34375 3.28125 C 10.738281 3.613281 11.628906 3.734375 13.015625 3.640625 C 14.398438 3.554688 15.941406 3.210938 17.640625 2.609375 Z M 17.640625 2.609375 "/></g></g></g><g fill="#ffffff" fill-opacity="0.502"><g transform="translate(239.553625, 191.270627)"><g><path d="M 10 -0.171875 C 7.769531 0.0664062 5.234375 -0.628906 2.390625 -2.265625 C -0.441406 -3.898438 -2.820312 -7.929688 -4.75 -14.359375 L -4.75 -14.375 C -4.78125 -14.550781 -4.707031 -14.695312 -4.53125 -14.8125 C -4.363281 -14.9375 -4.144531 -14.9375 -3.875 -14.8125 C -3.601562 -14.695312 -3.195312 -14.140625 -2.65625 -13.140625 C -2.113281 -12.148438 -1.171875 -10.519531 0.171875 -8.25 C 1.523438 -5.988281 2.882812 -4.859375 4.25 -4.859375 C 5.613281 -4.859375 6.265625 -5.59375 6.203125 -7.0625 C 6.148438 -8.53125 6.109375 -9.316406 6.078125 -9.421875 C 5.796875 -10.847656 5.566406 -12.238281 5.390625 -13.59375 C 5.210938 -14.945312 5.242188 -16.285156 5.484375 -17.609375 C 5.816406 -19.078125 6.472656 -20.171875 7.453125 -20.890625 C 8.441406 -21.609375 9.660156 -21.96875 11.109375 -21.96875 C 12.554688 -21.976562 13.890625 -21.722656 15.109375 -21.203125 C 14.929688 -20.898438 14.847656 -20.3125 14.859375 -19.4375 C 14.878906 -18.570312 14.945312 -17.695312 15.0625 -16.8125 C 15.132812 -16.164062 15.1875 -15.546875 15.21875 -14.953125 C 15.207031 -14.148438 15.515625 -13.171875 16.140625 -12.015625 C 16.773438 -10.859375 17.5 -9.769531 18.3125 -8.75 C 19.132812 -7.726562 20.015625 -6.921875 20.953125 -6.328125 C 21.890625 -5.742188 22.289062 -6.242188 22.15625 -7.828125 C 21.84375 -10.265625 21.476562 -12.222656 21.0625 -13.703125 C 20.757812 -14.835938 20.546875 -15.894531 20.421875 -16.875 C 20.304688 -17.851562 20.367188 -18.984375 20.609375 -20.265625 C 20.921875 -21.765625 21.570312 -22.875 22.5625 -23.59375 C 23.550781 -24.3125 24.765625 -24.671875 26.203125 -24.671875 C 27.648438 -24.679688 28.972656 -24.414062 30.171875 -23.875 C 29.929688 -23.476562 29.722656 -22.8125 29.546875 -21.875 C 29.179688 -20.207031 29.382812 -18.363281 30.15625 -16.34375 C 30.9375 -14.332031 31.921875 -12.472656 33.109375 -10.765625 C 34.304688 -9.054688 35.539062 -7.679688 36.8125 -6.640625 C 38.082031 -5.609375 38.65625 -5.992188 38.53125 -7.796875 C 38.269531 -9.890625 37.957031 -11.8125 37.59375 -13.5625 C 37.226562 -15.320312 36.960938 -16.960938 36.796875 -18.484375 C 36.628906 -20.003906 36.6875 -21.484375 36.96875 -22.921875 C 37.300781 -24.421875 37.960938 -25.53125 38.953125 -26.25 C 39.941406 -26.976562 41.15625 -27.34375 42.59375 -27.34375 C 44.039062 -27.34375 45.359375 -27.082031 46.546875 -26.5625 C 46.078125 -25.75 45.796875 -24.550781 45.703125 -22.96875 C 45.617188 -21.382812 45.707031 -19.710938 45.96875 -17.953125 C 46.238281 -16.191406 46.566406 -14.425781 46.953125 -12.65625 C 47.429688 -10.320312 47.769531 -8.1875 47.96875 -6.25 C 48.164062 -4.3125 48 -2.78125 47.46875 -1.65625 C 46.945312 -0.707031 45.976562 -0.15625 44.5625 0 C 43.15625 0.144531 41.628906 -0.171875 39.984375 -0.953125 C 38.691406 -1.628906 37.421875 -2.457031 36.171875 -3.4375 C 34.929688 -4.425781 33.332031 -6.234375 31.375 -8.859375 C 31.769531 -5.285156 31.671875 -2.882812 31.078125 -1.65625 C 30.535156 -0.707031 29.570312 -0.15625 28.1875 0 C 26.800781 0.144531 25.296875 -0.171875 23.671875 -0.953125 C 22.410156 -1.597656 21.175781 -2.382812 19.96875 -3.3125 C 18.769531 -4.25 17.234375 -5.878906 15.359375 -8.203125 C 15.535156 -5.609375 15.242188 -3.679688 14.484375 -2.421875 C 13.734375 -1.171875 12.238281 -0.421875 10 -0.171875 Z M 10 -0.171875 "/></g></g></g><g fill="#005959" fill-opacity="1"><g transform="translate(85.412109, 191.209382)"><g><path d="M 11.328125 10.4375 C 10.523438 10.4375 9.566406 10.164062 8.453125 9.625 C 7.347656 9.09375 6.269531 8.253906 5.21875 7.109375 C 4.164062 5.960938 3.457031 4.804688 3.09375 3.640625 C 2.5 1.722656 2.164062 -0.570312 2.09375 -3.25 L 2.09375 -3.921875 C 2.09375 -6.441406 2.523438 -9.285156 3.390625 -12.453125 C 4.253906 -15.617188 5.898438 -19.09375 8.328125 -22.875 C 10.609375 -25.875 13.441406 -27.375 16.828125 -27.375 C 17.671875 -27.375 18.820312 -27.191406 20.28125 -26.828125 C 21.738281 -26.472656 23.394531 -25.484375 25.25 -23.859375 C 27.53125 -21.921875 29.179688 -19.8125 30.203125 -17.53125 C 31.023438 -15.664062 31.4375 -13.828125 31.4375 -12.015625 C 31.4375 -11.609375 31.375 -10.769531 31.25 -9.5 C 31.132812 -8.238281 30.410156 -6.78125 29.078125 -5.125 C 27.722656 -3.53125 26.132812 -2.390625 24.3125 -1.703125 C 23.082031 -1.234375 21.847656 -1 20.609375 -1 C 20.003906 -1 19.078125 -1.101562 17.828125 -1.3125 C 16.585938 -1.519531 15.203125 -2.332031 13.671875 -3.75 C 12.921875 -4.53125 11.875 -5.953125 10.53125 -8.015625 C 9.988281 -5.515625 9.71875 -3.414062 9.71875 -1.71875 C 9.71875 -0.75 9.816406 0.65625 10.015625 2.5 C 10.210938 4.351562 10.816406 7.003906 11.828125 10.453125 C 11.867188 10.441406 11.703125 10.4375 11.328125 10.4375 Z M 17.234375 -6.71875 C 19.640625 -6.71875 21.503906 -8.128906 22.828125 -10.953125 C 23.222656 -11.796875 23.523438 -12.753906 23.734375 -13.828125 C 23.816406 -14.328125 23.859375 -14.820312 23.859375 -15.3125 C 23.859375 -15.90625 23.769531 -16.617188 23.59375 -17.453125 C 23.414062 -18.285156 22.863281 -19.113281 21.9375 -19.9375 C 21.238281 -20.488281 20.507812 -20.765625 19.75 -20.765625 C 19.476562 -20.765625 19.023438 -20.6875 18.390625 -20.53125 C 17.765625 -20.375 17.019531 -19.867188 16.15625 -19.015625 C 15.289062 -18.171875 14.546875 -17.207031 13.921875 -16.125 C 13.191406 -14.78125 12.828125 -13.304688 12.828125 -11.703125 C 12.828125 -10.109375 13.398438 -8.769531 14.546875 -7.6875 C 15.410156 -7.039062 16.304688 -6.71875 17.234375 -6.71875 Z M 17.234375 -6.71875 "/></g></g></g><g fill="#005959" fill-opacity="1"><g transform="translate(115.699732, 191.209382)"><g><path d="M 7.328125 -0.453125 C 6.285156 -0.453125 5.046875 -0.691406 3.609375 -1.171875 C 2.171875 -1.648438 0.820312 -2.726562 -0.4375 -4.40625 C -1.375 -5.4375 -2.164062 -6.644531 -2.8125 -8.03125 C -3.457031 -9.425781 -3.929688 -10.769531 -4.234375 -12.0625 C -4.390625 -12.851562 -4.46875 -13.546875 -4.46875 -14.140625 C -4.46875 -15.097656 -4.3125 -15.578125 -4 -15.578125 C -3.945312 -15.578125 -3.960938 -15.59375 -4.046875 -15.625 C -3.773438 -15.164062 -3.429688 -14.535156 -3.015625 -13.734375 C -2.441406 -12.523438 -1.753906 -11.316406 -0.953125 -10.109375 C -0.160156 -8.898438 0.8125 -8.007812 1.96875 -7.4375 C 2.507812 -7.15625 3.085938 -7.015625 3.703125 -7.015625 C 4.484375 -7.015625 5.320312 -7.226562 6.21875 -7.65625 C 7.363281 -8.3125 8.175781 -9.507812 8.65625 -11.25 C 9.039062 -12.695312 9.234375 -14.296875 9.234375 -16.046875 C 9.234375 -16.242188 9.21875 -16.890625 9.1875 -17.984375 C 9.164062 -19.078125 8.941406 -20.492188 8.515625 -22.234375 C 8.097656 -23.984375 7.6875 -25.125 7.28125 -25.65625 C 8.394531 -26.363281 9.753906 -26.851562 11.359375 -27.125 C 11.867188 -27.226562 12.359375 -27.28125 12.828125 -27.28125 C 13.785156 -27.28125 14.71875 -27.054688 15.625 -26.609375 C 16.53125 -26.160156 17.082031 -25.21875 17.28125 -23.78125 C 18.007812 -20.53125 18.375 -17.644531 18.375 -15.125 C 18.375 -13.90625 18.195312 -12.234375 17.84375 -10.109375 C 17.5 -7.992188 16.578125 -6.046875 15.078125 -4.265625 C 12.941406 -1.722656 10.359375 -0.453125 7.328125 -0.453125 Z M 8.734375 2.609375 C 8.378906 2.703125 8.222656 2.882812 8.265625 3.15625 C 8.304688 3.425781 8.3125 3.953125 8.28125 4.734375 C 8.257812 5.515625 8.171875 6.289062 8.015625 7.0625 C 7.859375 7.84375 7.644531 8.441406 7.375 8.859375 C 6.320312 9.296875 5.203125 9.546875 4.015625 9.609375 C 2.835938 9.679688 1.914062 9.3125 1.25 8.5 C 1.019531 8.125 0.898438 7.519531 0.890625 6.6875 C 0.890625 5.863281 0.984375 5.085938 1.171875 4.359375 C 1.359375 3.640625 1.445312 3.28125 1.4375 3.28125 C 1.832031 3.613281 2.722656 3.734375 4.109375 3.640625 C 5.503906 3.554688 7.046875 3.210938 8.734375 2.609375 Z M 17.640625 2.609375 C 17.285156 2.703125 17.128906 2.882812 17.171875 3.15625 C 17.210938 3.425781 17.21875 3.953125 17.1875 4.734375 C 17.164062 5.515625 17.070312 6.289062 16.90625 7.0625 C 16.738281 7.84375 16.523438 8.441406 16.265625 8.859375 C 15.210938 9.296875 14.09375 9.546875 12.90625 9.609375 C 11.71875 9.679688 10.796875 9.3125 10.140625 8.5 C 9.921875 8.125 9.800781 7.519531 9.78125 6.6875 C 9.769531 5.863281 9.859375 5.085938 10.046875 4.359375 C 10.242188 3.640625 10.34375 3.28125 10.34375 3.28125 C 10.738281 3.613281 11.628906 3.734375 13.015625 3.640625 C 14.398438 3.554688 15.941406 3.210938 17.640625 2.609375 Z M 17.640625 2.609375 "/></g></g></g><g fill="#005959" fill-opacity="1"><g transform="translate(133.642636, 191.209382)"><g><path d="M 9.28125 -31.71875 C 9.445312 -31.71875 10.296875 -31.019531 11.828125 -29.625 C 14.515625 -27.675781 17.070312 -26.113281 19.5 -24.9375 C 21.8125 -23.882812 24.695312 -22.851562 28.15625 -21.84375 C 30.632812 -21.238281 33.222656 -20.863281 35.921875 -20.71875 C 38.628906 -20.570312 39.78125 -18.851562 39.375 -15.5625 C 38.976562 -12.28125 37.863281 -10.847656 36.03125 -11.265625 C 34.132812 -11.265625 31.644531 -10.140625 28.5625 -7.890625 C 25.488281 -5.640625 22.546875 -3.765625 19.734375 -2.265625 C 15.210938 -0.160156 10.523438 0.238281 5.671875 -1.0625 C 0.828125 -2.363281 -2.726562 -5.109375 -5 -9.296875 C -7.28125 -13.484375 -6.628906 -14.375 -3.046875 -11.96875 C 0.535156 -9.570312 5.15625 -8.375 10.8125 -8.375 C 14.707031 -8.375 20.410156 -10.804688 27.921875 -15.671875 C 21.785156 -15.847656 16.242188 -16.78125 11.296875 -18.46875 C 8.828125 -19.613281 7.460938 -20.664062 7.203125 -21.625 C 6.960938 -22.332031 6.84375 -23.082031 6.84375 -23.875 L 6.84375 -24.359375 C 6.84375 -28.242188 7.457031 -30.648438 8.6875 -31.578125 C 8.6875 -31.578125 8.882812 -31.625 9.28125 -31.71875 Z M 23.09375 0.671875 C 24.84375 1.304688 26.4375 1.664062 27.875 1.75 C 29.320312 1.84375 30.238281 1.710938 30.625 1.359375 C 30.65625 1.378906 30.765625 1.765625 30.953125 2.515625 C 31.148438 3.265625 31.238281 4.070312 31.21875 4.9375 C 31.207031 5.8125 31.09375 6.429688 30.875 6.796875 C 30.1875 7.660156 29.222656 8.054688 27.984375 7.984375 C 26.742188 7.921875 25.578125 7.648438 24.484375 7.171875 C 24.210938 6.742188 23.988281 6.125 23.8125 5.3125 C 23.644531 4.507812 23.550781 3.707031 23.53125 2.90625 C 23.507812 2.101562 23.519531 1.550781 23.5625 1.25 C 23.601562 0.957031 23.445312 0.765625 23.09375 0.671875 Z M 23.09375 0.671875 "/></g></g></g><g fill="#005959" fill-opacity="1"><g transform="translate(174.361067, 191.209382)"><g/></g></g><g fill="#005959" fill-opacity="1"><g transform="translate(183.930616, 191.209382)"><g><path d="M 30.21875 -1.4375 C 30.300781 -2.4375 30.300781 -3.378906 30.21875 -4.265625 C 30.0625 -5.660156 29.820312 -7.054688 29.5 -8.453125 C 29.226562 -9.710938 29.015625 -10.953125 28.859375 -12.171875 C 28.710938 -13.390625 28.742188 -14.582031 28.953125 -15.75 C 29.429688 -17.707031 30.515625 -18.925781 32.203125 -19.40625 C 33.890625 -19.882812 35.628906 -19.734375 37.421875 -18.953125 C 37.304688 -18.722656 37.253906 -18.210938 37.265625 -17.421875 C 37.273438 -16.640625 37.328125 -15.847656 37.421875 -15.046875 C 37.503906 -14.460938 37.5625 -13.90625 37.59375 -13.375 C 37.570312 -12.75 37.640625 -10.164062 37.796875 -5.625 C 37.867188 -4.695312 37.816406 -3.859375 37.640625 -3.109375 C 37.671875 -2.597656 37.6875 -2.101562 37.6875 -1.625 C 37.550781 1.113281 36.4375 3.492188 34.34375 5.515625 C 32.257812 7.535156 29.628906 8.960938 26.453125 9.796875 C 23.285156 10.628906 20.019531 10.648438 16.65625 9.859375 C 13.875 9.085938 11.535156 7.910156 9.640625 6.328125 C 7.753906 4.742188 6.328125 2.867188 5.359375 0.703125 C 4.398438 -1.453125 3.921875 -3.710938 3.921875 -6.078125 C 3.921875 -8.097656 4.238281 -9.929688 4.875 -11.578125 C 5.519531 -13.234375 6.351562 -14.617188 7.375 -15.734375 C 8.394531 -16.859375 9.488281 -17.648438 10.65625 -18.109375 C 11.832031 -18.578125 12.976562 -18.664062 14.09375 -18.375 C 14.789062 -18.15625 15.3125 -17.738281 15.65625 -17.125 C 16 -16.519531 16.207031 -15.84375 16.28125 -15.09375 C 16.351562 -14.34375 16.359375 -13.753906 16.296875 -13.328125 C 16.234375 -12.898438 16.304688 -12.703125 16.515625 -12.734375 C 15.265625 -12.703125 14.09375 -12.457031 13 -12 C 11.90625 -11.539062 11 -10.867188 10.28125 -9.984375 C 9.570312 -9.097656 9.21875 -8.023438 9.21875 -6.765625 C 9.28125 -4.898438 10.164062 -3.175781 11.875 -1.59375 C 13.59375 -0.0195312 15.773438 1.09375 18.421875 1.75 C 19.742188 2.03125 21.15625 2.113281 22.65625 2 C 24.15625 1.894531 25.582031 1.546875 26.9375 0.953125 C 28.1875 0.410156 29.28125 -0.382812 30.21875 -1.4375 Z M 19.859375 -27.03125 C 21.273438 -26.175781 22.609375 -25.578125 23.859375 -25.234375 C 25.117188 -24.898438 25.945312 -24.847656 26.34375 -25.078125 C 26.320312 -25.085938 26.332031 -24.753906 26.375 -24.078125 C 26.414062 -23.398438 26.351562 -22.6875 26.1875 -21.9375 C 26.03125 -21.1875 25.816406 -20.671875 25.546875 -20.390625 C 24.828125 -19.765625 23.9375 -19.585938 22.875 -19.859375 C 21.820312 -20.128906 20.859375 -20.566406 19.984375 -21.171875 C 19.816406 -21.585938 19.734375 -22.15625 19.734375 -22.875 C 19.734375 -23.601562 19.789062 -24.320312 19.90625 -25.03125 C 20.03125 -25.75 20.132812 -26.222656 20.21875 -26.453125 C 20.300781 -26.679688 20.179688 -26.875 19.859375 -27.03125 Z M 19.859375 -27.03125 "/></g></g></g><g fill="#005959" fill-opacity="1"><g transform="translate(221.610721, 191.209382)"><g><path d="M 7.328125 -0.453125 C 6.285156 -0.453125 5.046875 -0.691406 3.609375 -1.171875 C 2.171875 -1.648438 0.820312 -2.726562 -0.4375 -4.40625 C -1.375 -5.4375 -2.164062 -6.644531 -2.8125 -8.03125 C -3.457031 -9.425781 -3.929688 -10.769531 -4.234375 -12.0625 C -4.390625 -12.851562 -4.46875 -13.546875 -4.46875 -14.140625 C -4.46875 -15.097656 -4.3125 -15.578125 -4 -15.578125 C -3.945312 -15.578125 -3.960938 -15.59375 -4.046875 -15.625 C -3.773438 -15.164062 -3.429688 -14.535156 -3.015625 -13.734375 C -2.441406 -12.523438 -1.753906 -11.316406 -0.953125 -10.109375 C -0.160156 -8.898438 0.8125 -8.007812 1.96875 -7.4375 C 2.507812 -7.15625 3.085938 -7.015625 3.703125 -7.015625 C 4.484375 -7.015625 5.320312 -7.226562 6.21875 -7.65625 C 7.363281 -8.3125 8.175781 -9.507812 8.65625 -11.25 C 9.039062 -12.695312 9.234375 -14.296875 9.234375 -16.046875 C 9.234375 -16.242188 9.21875 -16.890625 9.1875 -17.984375 C 9.164062 -19.078125 8.941406 -20.492188 8.515625 -22.234375 C 8.097656 -23.984375 7.6875 -25.125 7.28125 -25.65625 C 8.394531 -26.363281 9.753906 -26.851562 11.359375 -27.125 C 11.867188 -27.226562 12.359375 -27.28125 12.828125 -27.28125 C 13.785156 -27.28125 14.71875 -27.054688 15.625 -26.609375 C 16.53125 -26.160156 17.082031 -25.21875 17.28125 -23.78125 C 18.007812 -20.53125 18.375 -17.644531 18.375 -15.125 C 18.375 -13.90625 18.195312 -12.234375 17.84375 -10.109375 C 17.5 -7.992188 16.578125 -6.046875 15.078125 -4.265625 C 12.941406 -1.722656 10.359375 -0.453125 7.328125 -0.453125 Z M 8.734375 2.609375 C 8.378906 2.703125 8.222656 2.882812 8.265625 3.15625 C 8.304688 3.425781 8.3125 3.953125 8.28125 4.734375 C 8.257812 5.515625 8.171875 6.289062 8.015625 7.0625 C 7.859375 7.84375 7.644531 8.441406 7.375 8.859375 C 6.320312 9.296875 5.203125 9.546875 4.015625 9.609375 C 2.835938 9.679688 1.914062 9.3125 1.25 8.5 C 1.019531 8.125 0.898438 7.519531 0.890625 6.6875 C 0.890625 5.863281 0.984375 5.085938 1.171875 4.359375 C 1.359375 3.640625 1.445312 3.28125 1.4375 3.28125 C 1.832031 3.613281 2.722656 3.734375 4.109375 3.640625 C 5.503906 3.554688 7.046875 3.210938 8.734375 2.609375 Z M 17.640625 2.609375 C 17.285156 2.703125 17.128906 2.882812 17.171875 3.15625 C 17.210938 3.425781 17.21875 3.953125 17.1875 4.734375 C 17.164062 5.515625 17.070312 6.289062 16.90625 7.0625 C 16.738281 7.84375 16.523438 8.441406 16.265625 8.859375 C 15.210938 9.296875 14.09375 9.546875 12.90625 9.609375 C 11.71875 9.679688 10.796875 9.3125 10.140625 8.5 C 9.921875 8.125 9.800781 7.519531 9.78125 6.6875 C 9.769531 5.863281 9.859375 5.085938 10.046875 4.359375 C 10.242188 3.640625 10.34375 3.28125 10.34375 3.28125 C 10.738281 3.613281 11.628906 3.734375 13.015625 3.640625 C 14.398438 3.554688 15.941406 3.210938 17.640625 2.609375 Z M 17.640625 2.609375 "/></g></g></g><g fill="#005959" fill-opacity="1"><g transform="translate(239.553625, 191.209382)"><g><path d="M 10 -0.171875 C 7.769531 0.0664062 5.234375 -0.628906 2.390625 -2.265625 C -0.441406 -3.898438 -2.820312 -7.929688 -4.75 -14.359375 L -4.75 -14.375 C -4.78125 -14.550781 -4.707031 -14.695312 -4.53125 -14.8125 C -4.363281 -14.9375 -4.144531 -14.9375 -3.875 -14.8125 C -3.601562 -14.695312 -3.195312 -14.140625 -2.65625 -13.140625 C -2.113281 -12.148438 -1.171875 -10.519531 0.171875 -8.25 C 1.523438 -5.988281 2.882812 -4.859375 4.25 -4.859375 C 5.613281 -4.859375 6.265625 -5.59375 6.203125 -7.0625 C 6.148438 -8.53125 6.109375 -9.316406 6.078125 -9.421875 C 5.796875 -10.847656 5.566406 -12.238281 5.390625 -13.59375 C 5.210938 -14.945312 5.242188 -16.285156 5.484375 -17.609375 C 5.816406 -19.078125 6.472656 -20.171875 7.453125 -20.890625 C 8.441406 -21.609375 9.660156 -21.96875 11.109375 -21.96875 C 12.554688 -21.976562 13.890625 -21.722656 15.109375 -21.203125 C 14.929688 -20.898438 14.847656 -20.3125 14.859375 -19.4375 C 14.878906 -18.570312 14.945312 -17.695312 15.0625 -16.8125 C 15.132812 -16.164062 15.1875 -15.546875 15.21875 -14.953125 C 15.207031 -14.148438 15.515625 -13.171875 16.140625 -12.015625 C 16.773438 -10.859375 17.5 -9.769531 18.3125 -8.75 C 19.132812 -7.726562 20.015625 -6.921875 20.953125 -6.328125 C 21.890625 -5.742188 22.289062 -6.242188 22.15625 -7.828125 C 21.84375 -10.265625 21.476562 -12.222656 21.0625 -13.703125 C 20.757812 -14.835938 20.546875 -15.894531 20.421875 -16.875 C 20.304688 -17.851562 20.367188 -18.984375 20.609375 -20.265625 C 20.921875 -21.765625 21.570312 -22.875 22.5625 -23.59375 C 23.550781 -24.3125 24.765625 -24.671875 26.203125 -24.671875 C 27.648438 -24.679688 28.972656 -24.414062 30.171875 -23.875 C 29.929688 -23.476562 29.722656 -22.8125 29.546875 -21.875 C 29.179688 -20.207031 29.382812 -18.363281 30.15625 -16.34375 C 30.9375 -14.332031 31.921875 -12.472656 33.109375 -10.765625 C 34.304688 -9.054688 35.539062 -7.679688 36.8125 -6.640625 C 38.082031 -5.609375 38.65625 -5.992188 38.53125 -7.796875 C 38.269531 -9.890625 37.957031 -11.8125 37.59375 -13.5625 C 37.226562 -15.320312 36.960938 -16.960938 36.796875 -18.484375 C 36.628906 -20.003906 36.6875 -21.484375 36.96875 -22.921875 C 37.300781 -24.421875 37.960938 -25.53125 38.953125 -26.25 C 39.941406 -26.976562 41.15625 -27.34375 42.59375 -27.34375 C 44.039062 -27.34375 45.359375 -27.082031 46.546875 -26.5625 C 46.078125 -25.75 45.796875 -24.550781 45.703125 -22.96875 C 45.617188 -21.382812 45.707031 -19.710938 45.96875 -17.953125 C 46.238281 -16.191406 46.566406 -14.425781 46.953125 -12.65625 C 47.429688 -10.320312 47.769531 -8.1875 47.96875 -6.25 C 48.164062 -4.3125 48 -2.78125 47.46875 -1.65625 C 46.945312 -0.707031 45.976562 -0.15625 44.5625 0 C 43.15625 0.144531 41.628906 -0.171875 39.984375 -0.953125 C 38.691406 -1.628906 37.421875 -2.457031 36.171875 -3.4375 C 34.929688 -4.425781 33.332031 -6.234375 31.375 -8.859375 C 31.769531 -5.285156 31.671875 -2.882812 31.078125 -1.65625 C 30.535156 -0.707031 29.570312 -0.15625 28.1875 0 C 26.800781 0.144531 25.296875 -0.171875 23.671875 -0.953125 C 22.410156 -1.597656 21.175781 -2.382812 19.96875 -3.3125 C 18.769531 -4.25 17.234375 -5.878906 15.359375 -8.203125 C 15.535156 -5.609375 15.242188 -3.679688 14.484375 -2.421875 C 13.734375 -1.171875 12.238281 -0.421875 10 -0.171875 Z M 10 -0.171875 "/></g></g></g></svg>