<svg version="1.1" id="Layer_1" xmlns="http://www.w3.org/2000/svg" xmlns:xlink="http://www.w3.org/1999/xlink" x="0px" y="0px"
	 width="100%" viewBox="0 0 500 145" enable-background="new 0 0 500 145" xml:space="preserve">
<path fill="#FCD916" opacity="1.000000" stroke="none" 
	d="
M391.000000,146.000000 
	C260.666656,146.000000 130.833328,146.000000 1.000000,146.000000 
	C1.000000,97.666664 1.000000,49.333332 1.000000,1.000000 
	C167.666672,1.000000 334.333344,1.000000 501.000000,1.000000 
	C501.000000,49.333332 501.000000,97.666664 501.000000,146.000000 
	C464.500000,146.000000 428.000000,146.000000 391.000000,146.000000 
M463.325684,133.816513 
	C466.190552,129.552048 469.498993,125.515877 471.834015,120.978737 
	C477.936920,109.120209 480.683563,96.274780 481.465637,83.042236 
	C482.714844,61.905518 480.082153,41.499275 469.098785,22.861515 
	C462.242950,11.227839 452.725708,5.279526 438.488617,5.313478 
	C313.374268,5.611851 188.258621,5.602957 63.144165,5.321526 
	C49.312607,5.290413 40.073662,11.175682 33.187134,22.289301 
	C24.902227,35.659657 21.514437,50.502460 20.518156,65.947830 
	C19.141960,87.283104 22.036600,107.866173 33.189686,126.555038 
	C39.752640,137.552368 48.896355,143.392563 62.648640,143.357529 
	C188.595901,143.036484 314.544373,143.117386 440.492218,143.277161 
	C449.437225,143.288498 456.789429,140.823715 463.325684,133.816513 
z"/>
<path fill="#045B58" opacity="1.000000" stroke="none" 
	d="
M463.082825,134.078491 
	C456.789429,140.823715 449.437225,143.288498 440.492218,143.277161 
	C314.544373,143.117386 188.595901,143.036484 62.648640,143.357529 
	C48.896355,143.392563 39.752640,137.552368 33.189686,126.555038 
	C22.036600,107.866173 19.141960,87.283104 20.518156,65.947830 
	C21.514437,50.502460 24.902227,35.659657 33.187134,22.289301 
	C40.073662,11.175682 49.312607,5.290413 63.144165,5.321526 
	C188.258621,5.602957 313.374268,5.611851 438.488617,5.313478 
	C452.725708,5.279526 462.242950,11.227839 469.098785,22.861515 
	C480.082153,41.499275 482.714844,61.905518 481.465637,83.042236 
	C480.683563,96.274780 477.936920,109.120209 471.834015,120.978737 
	C469.498993,125.515877 466.190552,129.552048 463.082825,134.078491 
M304.500275,30.507710 
	C225.001434,30.507742 145.502014,30.641851 66.004684,30.294811 
	C58.284222,30.261106 54.879414,33.649818 52.149918,39.664120 
	C46.873726,51.289944 45.033836,63.592651 45.321793,76.183624 
	C45.624985,89.441017 47.652069,102.385757 54.789497,114.005272 
	C56.586876,116.931351 58.767349,118.260872 62.473328,118.257645 
	C188.137909,118.148193 313.802643,118.146637 439.467194,118.259369 
	C443.415405,118.262917 446.052734,116.946220 447.299103,113.555435 
	C450.263641,105.490295 454.050140,97.491356 455.419952,89.124382 
	C458.404938,70.891647 456.921844,52.927780 447.884552,36.201469 
	C445.705200,32.167885 442.930145,30.361376 437.997620,30.384903 
	C393.832672,30.595560 349.666260,30.507637 304.500275,30.507710 
z"/>
<path fill="#FCD916" opacity="1.000000" stroke="none" 
	d="
M305.000305,30.507624 
	C349.666260,30.507637 393.832672,30.595560 437.997620,30.384903 
	C442.930145,30.361376 445.705200,32.167885 447.884552,36.201469 
	C456.921844,52.927780 458.404938,70.891647 455.419952,89.124382 
	C454.050140,97.491356 450.263641,105.490295 447.299103,113.555435 
	C446.052734,116.946220 443.415405,118.262917 439.467194,118.259369 
	C313.802643,118.146637 188.137909,118.148193 62.473328,118.257645 
	C58.767349,118.260872 56.586876,116.931351 54.789497,114.005272 
	C47.652069,102.385757 45.624985,89.441017 45.321793,76.183624 
	C45.033836,63.592651 46.873726,51.289944 52.149918,39.664120 
	C54.879414,33.649818 58.284222,30.261106 66.004684,30.294811 
	C145.502014,30.641851 225.001434,30.507742 305.000305,30.507624 
M283.554169,92.280869 
	C275.979736,96.158112 267.053314,94.886261 261.512085,89.140259 
	C256.834320,84.289627 257.946259,78.550797 264.101501,75.935593 
	C265.290833,75.430283 266.555115,75.101349 268.950012,74.302292 
	C267.593628,71.892822 266.845612,68.654007 265.120209,68.002182 
	C263.144928,67.255936 259.454926,68.010277 258.019836,69.534378 
	C255.407532,72.308701 252.917236,75.915695 252.121582,79.556694 
	C248.926086,94.179520 260.193207,108.357635 279.514618,105.354164 
	C289.060150,103.870323 295.898682,98.539810 297.012756,87.915970 
	C305.593231,93.363113 310.329895,92.464226 318.693115,84.146988 
	C322.829895,89.488625 328.011383,92.684708 335.024536,91.612930 
	C340.178894,90.825203 340.711151,86.499313 341.218353,82.583427 
	C344.677582,85.255508 347.717194,88.138161 351.235046,90.208031 
	C358.272247,94.348625 362.052612,92.134529 362.589020,84.002884 
	C362.626221,83.439354 362.853607,82.888374 362.979767,82.382721 
	C366.131439,84.916649 368.797119,87.862434 372.111023,89.481201 
	C374.983978,90.884583 379.156586,92.046089 381.681030,90.915985 
	C383.439240,90.128891 384.209442,85.220787 383.978394,82.266411 
	C383.311615,73.740395 381.914459,65.271500 380.744965,56.327972 
	C373.450958,54.047234 369.081360,57.162022 369.322327,65.600624 
	C369.379089,67.587563 369.749573,69.571495 370.057404,71.544060 
	C370.653473,75.363159 371.307678,79.173187 371.937775,82.986977 
	C371.383240,83.158005 370.828674,83.329033 370.274139,83.500069 
	C363.491730,77.376198 358.388885,70.426102 360.034607,60.369919 
	C354.391998,56.903900 347.427795,59.734257 347.688232,67.580765 
	C347.759369,69.724510 348.194366,71.861679 348.538544,73.989548 
	C349.027313,77.011665 349.586609,80.022392 350.338104,84.304985 
	C341.246185,79.144852 340.162598,71.615585 340.113312,63.871620 
	C330.739197,61.199474 326.629700,64.625221 327.661865,73.847588 
	C327.939545,76.328804 328.526825,78.800751 328.527435,81.277069 
	C328.527740,82.545830 327.838898,84.522072 326.931824,84.896996 
	C325.898468,85.324089 323.631409,84.748154 323.040527,83.854439 
	C321.780548,81.948906 320.762543,79.606079 320.536591,77.353065 
	C320.092712,72.926949 320.656830,68.387932 320.085724,63.988861 
	C318.937927,55.147511 314.629913,53.280411 306.643829,57.935219 
	C306.916107,58.981014 307.417572,60.081280 307.456757,61.197773 
	C307.646973,66.616234 308.162354,72.080994 307.661560,77.445229 
	C307.340546,80.883430 304.456696,82.881866 300.714355,82.339355 
	C297.282715,81.841888 296.145020,79.495667 296.291260,76.209663 
	C296.372284,74.389084 296.120392,72.553825 296.020935,70.725052 
	C295.777649,66.250587 294.168915,64.977760 289.793457,65.967842 
	C286.380493,66.740150 284.605865,69.108994 284.816772,72.473274 
	C285.096588,76.937538 286.118713,81.365509 286.239624,85.824844 
	C286.293915,87.825844 284.935699,89.865143 283.554169,92.280869 
M223.615982,63.945999 
	C211.346313,62.375637 200.501678,57.397728 191.079086,49.351807 
	C185.382523,58.942387 187.679153,65.390900 197.105515,68.073608 
	C199.974030,68.889969 202.929459,69.438599 205.874115,69.938957 
	C208.810226,70.437843 211.782761,70.722404 215.735809,71.228516 
	C203.745499,79.188995 192.499832,84.029152 179.949265,78.105598 
	C179.594040,72.823685 179.509201,68.187553 178.925583,63.615093 
	C177.844650,55.146484 172.668427,53.104931 166.375900,57.468132 
	C166.613632,63.823635 167.112946,69.574974 166.891754,75.298462 
	C166.812225,77.356064 165.425400,79.845695 163.836853,81.205666 
	C162.624512,82.243584 160.122482,82.089745 158.259888,81.880600 
	C157.619186,81.808655 156.625168,79.906013 156.730621,78.942360 
	C157.696579,70.116142 153.373795,63.947498 146.874802,58.886612 
	C140.097458,53.608978 131.024887,54.583904 126.116470,61.498554 
	C119.305145,71.093910 116.396019,81.868523 118.208420,93.639557 
	C119.234566,100.304077 123.366943,104.353508 130.199127,105.515007 
	C128.942123,97.887131 126.426491,90.369164 128.989151,82.376160 
	C138.416138,92.662834 143.267517,93.209351 153.781784,85.512085 
	C162.488663,93.526909 167.999847,93.467590 176.423370,85.289185 
	C178.558746,86.531296 180.599548,87.961029 182.829453,88.974754 
	C194.347137,94.210655 204.381424,90.752754 214.151505,83.984230 
	C218.406403,81.036522 223.505630,79.322906 228.148041,76.907806 
	C229.227020,76.346512 230.355606,75.376831 230.866074,74.310173 
	C233.680771,68.428726 231.298965,64.683670 223.615982,63.945999 
M214.125656,93.891510 
	C213.074295,93.694084 212.022934,93.496651 209.314499,92.988052 
	C210.864273,96.693710 211.424484,99.845627 213.273300,101.739815 
	C214.299362,102.791054 218.418442,102.585350 219.452560,101.431168 
	C220.817368,99.907921 220.523178,96.898247 220.981552,94.304573 
	C218.192978,94.153221 216.564163,94.064819 214.125656,93.891510 
M318.872040,96.228638 
	C315.961853,96.488434 313.051666,96.748230 309.156830,97.095932 
	C309.821960,99.605896 309.799774,102.433334 311.202423,103.845963 
	C312.228088,104.878929 316.089539,104.886360 316.975830,103.865425 
	C318.460480,102.155258 318.580566,99.260483 318.872040,96.228638 
M172.745941,96.758537 
	C169.184677,96.072800 167.889282,97.794487 168.244400,101.105309 
	C168.593460,104.359711 170.776031,105.110634 173.602554,104.748337 
	C177.732742,104.218948 178.727661,101.955345 177.441544,96.020409 
	C176.141037,96.240784 174.835602,96.461998 172.745941,96.758537 
M307.078796,101.503601 
	C307.250214,99.769005 307.421631,98.034409 307.612122,96.106850 
	C304.082214,96.454498 301.180389,96.740288 297.179657,97.134308 
	C298.074066,99.766846 298.345428,103.467331 299.729248,103.944969 
	C301.705658,104.627151 304.496490,102.949600 307.078796,101.503601 
M158.511627,96.780174 
	C158.042801,98.973900 157.573975,101.167618 157.105148,103.361343 
	C159.252579,103.658218 161.660172,104.719612 163.494202,104.095505 
	C167.521790,102.724953 165.980164,99.137505 165.942276,96.140297 
	C163.507660,96.379669 161.381638,96.588707 158.511627,96.780174 
M273.626068,56.804371 
	C273.746429,59.324459 273.381104,62.029522 274.234589,64.270378 
	C274.559937,65.124619 278.377319,65.776230 279.360382,64.981926 
	C280.749695,63.859394 280.985992,61.309849 281.736603,59.313309 
	C278.652405,58.320713 276.482239,57.622292 273.626068,56.804371 
z"/>
<path fill="#075D5A" opacity="1.000000" stroke="none" 
	d="
M283.886292,92.083969 
	C284.935699,89.865143 286.293915,87.825844 286.239624,85.824844 
	C286.118713,81.365509 285.096588,76.937538 284.816772,72.473274 
	C284.605865,69.108994 286.380493,66.740150 289.793457,65.967842 
	C294.168915,64.977760 295.777649,66.250587 296.020935,70.725052 
	C296.120392,72.553825 296.372284,74.389084 296.291260,76.209663 
	C296.145020,79.495667 297.282715,81.841888 300.714355,82.339355 
	C304.456696,82.881866 307.340546,80.883430 307.661560,77.445229 
	C308.162354,72.080994 307.646973,66.616234 307.456757,61.197773 
	C307.417572,60.081280 306.916107,58.981014 306.643829,57.935219 
	C314.629913,53.280411 318.937927,55.147511 320.085724,63.988861 
	C320.656830,68.387932 320.092712,72.926949 320.536591,77.353065 
	C320.762543,79.606079 321.780548,81.948906 323.040527,83.854439 
	C323.631409,84.748154 325.898468,85.324089 326.931824,84.896996 
	C327.838898,84.522072 328.527740,82.545830 328.527435,81.277069 
	C328.526825,78.800751 327.939545,76.328804 327.661865,73.847588 
	C326.629700,64.625221 330.739197,61.199474 340.113312,63.871620 
	C340.162598,71.615585 341.246185,79.144852 350.338104,84.304985 
	C349.586609,80.022392 349.027313,77.011665 348.538544,73.989548 
	C348.194366,71.861679 347.759369,69.724510 347.688232,67.580765 
	C347.427795,59.734257 354.391998,56.903900 360.034607,60.369919 
	C358.388885,70.426102 363.491730,77.376198 370.274139,83.500069 
	C370.828674,83.329033 371.383240,83.158005 371.937775,82.986977 
	C371.307678,79.173187 370.653473,75.363159 370.057404,71.544060 
	C369.749573,69.571495 369.379089,67.587563 369.322327,65.600624 
	C369.081360,57.162022 373.450958,54.047234 380.744965,56.327972 
	C381.914459,65.271500 383.311615,73.740395 383.978394,82.266411 
	C384.209442,85.220787 383.439240,90.128891 381.681030,90.915985 
	C379.156586,92.046089 374.983978,90.884583 372.111023,89.481201 
	C368.797119,87.862434 366.131439,84.916649 362.979767,82.382721 
	C362.853607,82.888374 362.626221,83.439354 362.589020,84.002884 
	C362.052612,92.134529 358.272247,94.348625 351.235046,90.208031 
	C347.717194,88.138161 344.677582,85.255508 341.218353,82.583427 
	C340.711151,86.499313 340.178894,90.825203 335.024536,91.612930 
	C328.011383,92.684708 322.829895,89.488625 318.693115,84.146988 
	C310.329895,92.464226 305.593231,93.363113 297.012756,87.915970 
	C295.898682,98.539810 289.060150,103.870323 279.514618,105.354164 
	C260.193207,108.357635 248.926086,94.179520 252.121582,79.556694 
	C252.917236,75.915695 255.407532,72.308701 258.019836,69.534378 
	C259.454926,68.010277 263.144928,67.255936 265.120209,68.002182 
	C266.845612,68.654007 267.593628,71.892822 268.950012,74.302292 
	C266.555115,75.101349 265.290833,75.430283 264.101501,75.935593 
	C257.946259,78.550797 256.834320,84.289627 261.512085,89.140259 
	C267.053314,94.886261 275.979736,96.158112 283.886292,92.083969 
z"/>
<path fill="#075D5A" opacity="1.000000" stroke="none" 
	d="
M224.041016,63.968399 
	C231.298965,64.683670 233.680771,68.428726 230.866074,74.310173 
	C230.355606,75.376831 229.227020,76.346512 228.148041,76.907806 
	C223.505630,79.322906 218.406403,81.036522 214.151505,83.984230 
	C204.381424,90.752754 194.347137,94.210655 182.829453,88.974754 
	C180.599548,87.961029 178.558746,86.531296 176.423370,85.289185 
	C167.999847,93.467590 162.488663,93.526909 153.781784,85.512085 
	C143.267517,93.209351 138.416138,92.662834 128.989151,82.376160 
	C126.426491,90.369164 128.942123,97.887131 130.199127,105.515007 
	C123.366943,104.353508 119.234566,100.304077 118.208420,93.639557 
	C116.396019,81.868523 119.305145,71.093910 126.116470,61.498554 
	C131.024887,54.583904 140.097458,53.608978 146.874802,58.886612 
	C153.373795,63.947498 157.696579,70.116142 156.730621,78.942360 
	C156.625168,79.906013 157.619186,81.808655 158.259888,81.880600 
	C160.122482,82.089745 162.624512,82.243584 163.836853,81.205666 
	C165.425400,79.845695 166.812225,77.356064 166.891754,75.298462 
	C167.112946,69.574974 166.613632,63.823635 166.375900,57.468132 
	C172.668427,53.104931 177.844650,55.146484 178.925583,63.615093 
	C179.509201,68.187553 179.594040,72.823685 179.949265,78.105598 
	C192.499832,84.029152 203.745499,79.188995 215.735809,71.228516 
	C211.782761,70.722404 208.810226,70.437843 205.874115,69.938957 
	C202.929459,69.438599 199.974030,68.889969 197.105515,68.073608 
	C187.679153,65.390900 185.382523,58.942387 191.079086,49.351807 
	C200.501678,57.397728 211.346313,62.375637 224.041016,63.968399 
M141.874878,81.572876 
	C143.479065,78.404198 145.967743,75.345642 146.380737,72.028648 
	C146.662460,69.765915 144.576859,66.325874 142.523010,64.985847 
	C141.290649,64.181786 137.644119,65.895241 135.887741,67.410484 
	C134.141510,68.916977 132.624710,71.523849 132.429214,73.771851 
	C132.209198,76.302109 132.899002,79.574135 134.492966,81.369186 
	C135.576065,82.588936 138.895889,81.822533 141.874878,81.572876 
z"/>
<path fill="#11635B" opacity="1.000000" stroke="none" 
	d="
M214.530502,93.933960 
	C216.564163,94.064819 218.192978,94.153221 220.981552,94.304573 
	C220.523178,96.898247 220.817368,99.907921 219.452560,101.431168 
	C218.418442,102.585350 214.299362,102.791054 213.273300,101.739815 
	C211.424484,99.845627 210.864273,96.693710 209.314499,92.988052 
	C212.022934,93.496651 213.074295,93.694084 214.530502,93.933960 
z"/>
<path fill="#0E615B" opacity="1.000000" stroke="none" 
	d="
M319.073486,96.546432 
	C318.580566,99.260483 318.460480,102.155258 316.975830,103.865425 
	C316.089539,104.886360 312.228088,104.878929 311.202423,103.845963 
	C309.799774,102.433334 309.821960,99.605896 309.156830,97.095932 
	C313.051666,96.748230 315.961853,96.488434 319.073486,96.546432 
z"/>
<path fill="#14645B" opacity="1.000000" stroke="none" 
	d="
M173.138062,96.720871 
	C174.835602,96.461998 176.141037,96.240784 177.441544,96.020409 
	C178.727661,101.955345 177.732742,104.218948 173.602554,104.748337 
	C170.776031,105.110634 168.593460,104.359711 168.244400,101.105309 
	C167.889282,97.794487 169.184677,96.072800 173.138062,96.720871 
z"/>
<path fill="#0F625B" opacity="1.000000" stroke="none" 
	d="
M307.009155,101.891724 
	C304.496490,102.949600 301.705658,104.627151 299.729248,103.944969 
	C298.345428,103.467331 298.074066,99.766846 297.179657,97.134308 
	C301.180389,96.740288 304.082214,96.454498 307.612122,96.106850 
	C307.421631,98.034409 307.250214,99.769005 307.009155,101.891724 
z"/>
<path fill="#0F625B" opacity="1.000000" stroke="none" 
	d="
M158.883621,96.788956 
	C161.381638,96.588707 163.507660,96.379669 165.942276,96.140297 
	C165.980164,99.137505 167.521790,102.724953 163.494202,104.095505 
	C161.660172,104.719612 159.252579,103.658218 157.105148,103.361343 
	C157.573975,101.167618 158.042801,98.973900 158.883621,96.788956 
z"/>
<path fill="#0C605A" opacity="1.000000" stroke="none" 
	d="
M273.969086,56.864120 
	C276.482239,57.622292 278.652405,58.320713 281.736603,59.313309 
	C280.985992,61.309849 280.749695,63.859394 279.360382,64.981926 
	C278.377319,65.776230 274.559937,65.124619 274.234589,64.270378 
	C273.381104,62.029522 273.746429,59.324459 273.969086,56.864120 
z"/>
<path fill="#F8D81A" opacity="1.000000" stroke="none" 
	d="
M141.545166,81.758606 
	C138.895889,81.822533 135.576065,82.588936 134.492966,81.369186 
	C132.899002,79.574135 132.209198,76.302109 132.429214,73.771851 
	C132.624710,71.523849 134.141510,68.916977 135.887741,67.410484 
	C137.644119,65.895241 141.290649,64.181786 142.523010,64.985847 
	C144.576859,66.325874 146.662460,69.765915 146.380737,72.028648 
	C145.967743,75.345642 143.479065,78.404198 141.545166,81.758606 
z"/>
</svg>